<svg width="320" height="320" fill="none" xmlns="http://www.w3.org/2000/svg"><path opacity=".2" fill-rule="evenodd" clip-rule="evenodd" d="M320 159.63c0 3.73-.13 7.43-.38 11.1V320H.38V170.71a161.6 161.6 0 010-22.16V.38h148.5a162.74 162.74 0 0122.23 0h148.51v148.15c.25 3.67.38 7.37.38 11.1zm-1.88-78.13v53.58a158.3 158.3 0 00-18.56-53.58h18.56zm0 67.08a156.93 156.93 0 00-20.29-67.08h-57.36v77.75h77.65v-10.67zm0-68.95h-19.64a160.6 160.6 0 00-58.01-58V1.88h77.65v77.75zm-21.38 0a159.1 159.1 0 00-56.27-56.26v56.26h56.27zM238.6 1.88v18.67a159.17 159.17 0 00-53.97-18.67h53.97zm0 20.4a157.82 157.82 0 00-67.53-20.4h-10.12v77.75h77.65V22.28zM81.4 1.88h53.96a159.17 159.17 0 00-53.96 18.67V1.88zm67.53 0a157.81 157.81 0 00-67.53 20.4v57.35h77.65V1.88h-10.12zm-69.41 0v19.75a160.6 160.6 0 00-58.02 58H1.88V1.88h77.65zm0 21.49a159.1 159.1 0 00-56.28 56.25h56.28V23.38zM1.88 81.5h18.56A158.3 158.3 0 001.88 135.1V81.5zm0 79.63v9.53c1.7 24.73 9.12 47.9 20.93 68.22h56.72v-77.75H1.88zm0 77.75v-54.7a158.32 158.32 0 0019.2 54.7H1.88zm0 1.87h20.3a160.62 160.62 0 0057.35 56.88v20.87H1.88v-77.75zM81.4 318.5v-19.8a159.24 159.24 0 0062.9 19.8h-62.9zm0-21.52a158.03 158.03 0 0077.65 20.77v-77H81.4v56.23zm157.18 21.52h-62.91c22.69-2.2 44-9.13 62.9-19.8v19.8zm-77.65-.75c28.24-.16 54.74-7.7 77.65-20.77v-56.23h-77.65v77zm79.53.75v-20.87a160.61 160.61 0 0057.35-56.88h20.3v77.75h-77.65zm0-22.6a159.12 159.12 0 0055.6-55.15h-55.6v55.14zm0-57.02h56.72a156.91 156.91 0 0020.93-68.2v-9.55h-77.65v77.75zm77.65-54.7a158.32 158.32 0 01-19.2 54.7h19.2v-54.7zm-294.2 56.57a159.1 159.1 0 0055.6 55.14v-55.14h-55.6zM22.16 81.5a156.91 156.91 0 00-20.28 67.1v10.65h77.65V81.5H22.16zm59.25 0h77.65v5.12H99.09v72.63H81.4V81.5zm17.67 79.63H81.41v77.75h77.65v-77.75h-34.03v72.06H99.08v-72.06zm25.95-1.88h34.03v-46.7h-34.03v46.7zm35.9-72.63H224.3v72.63h14.29V81.5h-77.65v5.12zm63.37 74.5h14.29v77.75h-77.65v-77.74h37.41v72.06h25.95v-72.06zm-25.95-1.87v-46.7h-37.41v46.7h37.41z" fill="#fff"/></svg>